# 3ds Max Wavefront OBJ Exporter v0.99 - (c)2007 guruware
# File Created: 03.07.2025 22:07:16

mtllib bowling_alley_backcover.mtl

#
# object Pole1
#

v  -30.5000 0.0000 0.2500
v  -30.5000 0.0000 -0.2500
v  -29.5000 0.0000 -0.2500
v  -29.5000 0.0000 0.2500
v  -30.5000 20.0000 0.2500
v  -29.5000 20.0000 0.2500
v  -29.5000 20.0000 -0.2500
v  -30.5000 20.0000 -0.2500
# 8 vertices

vn -0.5774 -0.5774 0.5774
vn -0.5774 -0.5774 -0.5774
vn 0.5774 -0.5774 -0.5774
vn 0.5774 -0.5774 0.5774
vn -0.5774 0.5774 0.5774
vn 0.5774 0.5774 0.5774
vn 0.5774 0.5774 -0.5774
vn -0.5774 0.5774 -0.5774
# 8 vertex normals

vt 0.0000 0.0000 0.0000
vt 0.0000 1.0000 0.0000
vt 1.0000 1.0000 0.0000
vt 1.0000 0.0000 0.0000
vt 0.0000 0.0000 1.0000
vt 1.0000 0.0000 1.0000
vt 1.0000 1.0000 1.0000
vt 0.0000 1.0000 1.0000
# 8 texture coords

o Pole1
g Pole1
usemtl Material__43
s 2
f 1/1/1 2/2/2 3/3/3 4/4/4 
s 4
f 5/5/5 6/6/6 7/7/7 8/8/8 
s 8
f 1/1/1 4/4/4 6/6/6 5/5/5 
s 16
f 4/4/4 3/3/3 7/7/7 6/6/6 
s 32
f 3/3/3 2/2/2 8/8/8 7/7/7 
s 64
f 2/2/2 1/1/1 5/5/5 8/8/8 
# 6 polygons

#
# object Pole
#

v  -2.5000 0.0000 0.2500
v  -2.5000 0.0000 -0.2500
v  2.5000 0.0000 -0.2500
v  2.5000 0.0000 0.2500
v  -2.5000 20.0000 0.2500
v  2.5000 20.0000 0.2500
v  2.5000 20.0000 -0.2500
v  -2.5000 20.0000 -0.2500
# 8 vertices

vn -0.5774 -0.5774 0.5774
vn -0.5774 -0.5774 -0.5774
vn 0.5774 -0.5774 -0.5774
vn 0.5774 -0.5774 0.5774
vn -0.5774 0.5774 0.5774
vn 0.5774 0.5774 0.5774
vn 0.5774 0.5774 -0.5774
vn -0.5774 0.5774 -0.5774
# 8 vertex normals

vt 1.0000 0.0000 0.0000
vt 1.0000 1.0000 0.0000
vt 0.0000 1.0000 0.0000
vt 0.0000 0.0000 0.0000
# 4 texture coords

o Pole
g Pole
usemtl Material__43
s 2
f 9/9/9 10/10/10 11/11/11 12/12/12 
s 4
f 13/12/13 14/9/14 15/10/15 16/11/16 
s 8
f 9/12/9 12/9/12 14/10/14 13/11/13 
s 16
f 12/12/12 11/9/11 15/10/15 14/11/14 
s 32
f 11/12/11 10/9/10 16/10/16 15/11/15 
s 64
f 10/12/10 9/9/9 13/10/13 16/11/16 
# 6 polygons

#
# object Pole2
#

v  29.5000 0.0000 0.2500
v  29.5000 0.0000 -0.2500
v  30.5000 0.0000 -0.2500
v  30.5000 0.0000 0.2500
v  29.5000 20.0000 0.2500
v  30.5000 20.0000 0.2500
v  30.5000 20.0000 -0.2500
v  29.5000 20.0000 -0.2500
# 8 vertices

vn -0.5774 -0.5774 0.5774
vn -0.5774 -0.5774 -0.5774
vn 0.5774 -0.5774 -0.5774
vn 0.5774 -0.5774 0.5774
vn -0.5774 0.5774 0.5774
vn 0.5774 0.5774 0.5774
vn 0.5774 0.5774 -0.5774
vn -0.5774 0.5774 -0.5774
# 8 vertex normals

vt 0.0000 0.0000 0.0000
vt 0.0000 1.0000 0.0000
vt 1.0000 1.0000 0.0000
vt 1.0000 0.0000 0.0000
vt 0.0000 0.0000 1.0000
vt 1.0000 0.0000 1.0000
vt 1.0000 1.0000 1.0000
vt 0.0000 1.0000 1.0000
# 8 texture coords

o Pole2
g Pole2
usemtl Material__43
s 2
f 17/13/17 18/14/18 19/15/19 20/16/20 
s 4
f 21/17/21 22/18/22 23/19/23 24/20/24 
s 8
f 17/13/17 20/16/20 22/18/22 21/17/21 
s 16
f 20/16/20 19/15/19 23/19/23 22/18/22 
s 32
f 19/15/19 18/14/18 24/20/24 23/19/23 
s 64
f 18/14/18 17/13/17 21/17/21 24/20/24 
# 6 polygons

#
# object Cover
#

v  -30.5000 20.0000 0.2500
v  -30.5000 20.0000 -0.2500
v  30.5000 20.0000 -0.2500
v  30.5000 20.0000 0.2500
v  -30.5000 40.0000 0.2500
v  30.5000 40.0000 0.2500
v  30.5000 40.0000 -0.2500
v  -30.5000 40.0000 -0.2500
# 8 vertices

vn -0.5774 -0.5774 0.5774
vn -0.5774 -0.5774 -0.5774
vn 0.5774 -0.5774 -0.5774
vn 0.5774 -0.5774 0.5774
vn -0.5774 0.5774 0.5774
vn 0.5774 0.5774 0.5774
vn 0.5774 0.5774 -0.5774
vn -0.5774 0.5774 -0.5774
# 8 vertex normals

vt 0.8964 0.1506 0.0000
vt 0.8964 0.8970 0.0000
vt 0.1049 0.8970 0.0000
vt 0.1049 0.1506 0.0000
vt 0.0000 0.0000 0.0000
vt 1.0000 0.0000 0.0000
vt 1.0000 1.0000 0.0000
vt 0.0000 1.0000 0.0000
# 8 texture coords

o Cover
g Cover
usemtl Material__44
s 2
f 25/21/25 26/22/26 27/23/27 28/24/28 
s 4
f 29/25/29 30/26/30 31/27/31 32/28/32 
s 8
f 25/25/25 28/26/28 30/27/30 29/28/29 
s 16
f 28/25/28 27/26/27 31/27/31 30/28/30 
s 32
f 27/25/27 26/26/26 32/27/32 31/28/31 
s 64
f 26/25/26 25/26/25 29/27/29 32/28/32 
# 6 polygons

