# 3ds Max Wavefront OBJ Exporter v0.99 - (c)2007 guruware
# File Created: 02.07.2025 16:13:07

mtllib Untitled.mtl

#
# object Tube001
#

v  5.2544 0.0000 -13.2172
v  5.2544 0.3112 -13.2172
v  7.6104 0.3112 -12.8018
v  7.6104 0.0000 -12.8018
v  5.2544 0.6225 -13.2172
v  7.6104 0.6225 -12.8018
v  5.2544 0.9337 -13.2172
v  7.6104 0.9337 -12.8018
v  5.2544 1.2450 -13.2172
v  7.6104 1.2450 -12.8018
v  5.2544 1.5562 -13.2172
v  7.6104 1.5562 -12.8018
v  5.2544 1.5562 -11.3167
v  6.9604 1.5562 -11.0159
v  5.2544 1.2450 -11.3167
v  6.9604 1.2450 -11.0159
v  5.2544 0.9337 -11.3167
v  6.9604 0.9337 -11.0159
v  5.2544 0.6225 -11.3167
v  6.9604 0.6225 -11.0159
v  5.2544 0.3112 -11.3167
v  6.9604 0.3112 -11.0159
v  5.2544 0.0000 -11.3167
v  6.9604 0.0000 -11.0159
v  9.6822 0.3112 -11.6056
v  9.6822 0.0000 -11.6056
v  9.6822 0.6225 -11.6056
v  9.6822 0.9337 -11.6056
v  9.6822 1.2450 -11.6056
v  9.6822 1.5562 -11.6056
v  8.4606 1.5562 -10.1498
v  8.4606 1.2450 -10.1498
v  8.4606 0.9337 -10.1498
v  8.4606 0.6225 -10.1498
v  8.4606 0.3112 -10.1498
v  8.4606 0.0000 -10.1498
v  11.2200 0.3112 -9.7730
v  11.2200 0.0000 -9.7730
v  11.2200 0.6225 -9.7730
v  11.2200 0.9337 -9.7730
v  11.2200 1.2450 -9.7730
v  11.2200 1.5562 -9.7730
v  9.5741 1.5562 -8.8227
v  9.5741 1.2450 -8.8227
v  9.5741 0.9337 -8.8227
v  9.5741 0.6225 -8.8227
v  9.5741 0.3112 -8.8227
v  9.5741 0.0000 -8.8227
v  12.0382 0.3112 -7.5249
v  12.0382 0.0000 -7.5249
v  12.0382 0.6225 -7.5249
v  12.0382 0.9337 -7.5249
v  12.0382 1.2450 -7.5249
v  12.0382 1.5562 -7.5249
v  10.1666 1.5562 -7.1949
v  10.1666 1.2450 -7.1949
v  10.1666 0.9337 -7.1949
v  10.1666 0.6225 -7.1949
v  10.1666 0.3112 -7.1949
v  10.1666 0.0000 -7.1949
v  12.0382 0.3112 -5.1326
v  12.0382 0.0000 -5.1326
v  12.0382 0.6225 -5.1326
v  12.0382 0.9337 -5.1326
v  12.0382 1.2450 -5.1326
v  12.0382 1.5562 -5.1326
v  10.1666 1.5562 -5.4626
v  10.1666 1.2450 -5.4626
v  10.1666 0.9337 -5.4626
v  10.1666 0.6225 -5.4626
v  10.1666 0.3112 -5.4626
v  10.1666 0.0000 -5.4626
v  11.2200 0.3112 -2.8845
v  11.2200 0.0000 -2.8845
v  11.2200 0.6225 -2.8845
v  11.2200 0.9337 -2.8845
v  11.2200 1.2450 -2.8845
v  11.2200 1.5562 -2.8845
v  9.5741 1.5562 -3.8348
v  9.5741 1.2450 -3.8348
v  9.5741 0.9337 -3.8348
v  9.5741 0.6225 -3.8348
v  9.5741 0.3112 -3.8348
v  9.5741 0.0000 -3.8348
v  9.6822 0.3112 -1.0519
v  9.6822 0.0000 -1.0519
v  9.6822 0.6225 -1.0519
v  9.6822 0.9337 -1.0519
v  9.6822 1.2450 -1.0519
v  9.6822 1.5562 -1.0519
v  8.4606 1.5562 -2.5077
v  8.4606 1.2450 -2.5077
v  8.4606 0.9337 -2.5077
v  8.4606 0.6225 -2.5077
v  8.4606 0.3112 -2.5077
v  8.4606 0.0000 -2.5077
v  7.6104 0.3112 0.1443
v  7.6104 0.0000 0.1443
v  7.6104 0.6225 0.1443
v  7.6104 0.9337 0.1443
v  7.6104 1.2450 0.1443
v  7.6104 1.5562 0.1443
v  6.9604 1.5562 -1.6416
v  6.9604 1.2450 -1.6416
v  6.9604 0.9337 -1.6416
v  6.9604 0.6225 -1.6416
v  6.9604 0.3112 -1.6416
v  6.9604 0.0000 -1.6416
v  5.2544 0.3112 0.5597
v  5.2544 0.0000 0.5597
v  5.2544 0.6225 0.5597
v  5.2544 0.9337 0.5597
v  5.2544 1.2450 0.5597
v  5.2544 1.5562 0.5597
v  5.2544 1.5562 -1.3408
v  5.2544 1.2450 -1.3408
v  5.2544 0.9337 -1.3408
v  5.2544 0.6225 -1.3408
v  5.2544 0.3112 -1.3408
v  5.2544 0.0000 -1.3408
v  2.8984 0.3112 0.1443
v  2.8984 0.0000 0.1443
v  2.8984 0.6225 0.1443
v  2.8984 0.9337 0.1443
v  2.8984 1.2450 0.1443
v  2.8984 1.5562 0.1443
v  3.5484 1.5562 -1.6416
v  3.5484 1.2450 -1.6416
v  3.5484 0.9337 -1.6416
v  3.5484 0.6225 -1.6416
v  3.5484 0.3112 -1.6416
v  3.5484 0.0000 -1.6416
v  0.8266 0.3112 -1.0519
v  0.8266 0.0000 -1.0519
v  0.8266 0.6225 -1.0519
v  0.8266 0.9337 -1.0519
v  0.8266 1.2450 -1.0519
v  0.8266 1.5562 -1.0519
v  2.0482 1.5562 -2.5077
v  2.0482 1.2450 -2.5077
v  2.0482 0.9337 -2.5077
v  2.0482 0.6225 -2.5077
v  2.0482 0.3112 -2.5077
v  2.0482 0.0000 -2.5077
v  -0.7112 0.3112 -2.8845
v  -0.7112 0.0000 -2.8845
v  -0.7112 0.6225 -2.8845
v  -0.7112 0.9337 -2.8845
v  -0.7112 1.2450 -2.8845
v  -0.7112 1.5562 -2.8845
v  0.9347 1.5562 -3.8348
v  0.9347 1.2450 -3.8348
v  0.9347 0.9337 -3.8348
v  0.9347 0.6225 -3.8348
v  0.9347 0.3112 -3.8348
v  0.9347 0.0000 -3.8348
v  -1.5294 0.3112 -5.1326
v  -1.5294 0.0000 -5.1326
v  -1.5294 0.6225 -5.1326
v  -1.5294 0.9337 -5.1326
v  -1.5294 1.2450 -5.1326
v  -1.5294 1.5562 -5.1326
v  0.3422 1.5562 -5.4626
v  0.3422 1.2450 -5.4626
v  0.3422 0.9337 -5.4626
v  0.3422 0.6225 -5.4626
v  0.3422 0.3112 -5.4626
v  0.3422 0.0000 -5.4626
v  -1.5294 0.3112 -7.5249
v  -1.5294 0.0000 -7.5249
v  -1.5294 0.6225 -7.5249
v  -1.5294 0.9337 -7.5249
v  -1.5294 1.2450 -7.5249
v  -1.5294 1.5562 -7.5249
v  0.3422 1.5562 -7.1949
v  0.3422 1.2450 -7.1949
v  0.3422 0.9337 -7.1949
v  0.3422 0.6225 -7.1949
v  0.3422 0.3112 -7.1949
v  0.3422 0.0000 -7.1949
v  -0.7112 0.3112 -9.7730
v  -0.7112 0.0000 -9.7730
v  -0.7112 0.6225 -9.7730
v  -0.7112 0.9337 -9.7730
v  -0.7112 1.2450 -9.7730
v  -0.7112 1.5562 -9.7730
v  0.9347 1.5562 -8.8227
v  0.9347 1.2450 -8.8227
v  0.9347 0.9337 -8.8227
v  0.9347 0.6225 -8.8227
v  0.9347 0.3112 -8.8227
v  0.9347 0.0000 -8.8227
v  0.8266 0.3112 -11.6056
v  0.8266 0.0000 -11.6056
v  0.8266 0.6225 -11.6056
v  0.8266 0.9337 -11.6056
v  0.8266 1.2450 -11.6056
v  0.8266 1.5562 -11.6056
v  2.0482 1.5562 -10.1498
v  2.0482 1.2450 -10.1498
v  2.0482 0.9337 -10.1498
v  2.0482 0.6225 -10.1498
v  2.0482 0.3112 -10.1498
v  2.0482 0.0000 -10.1498
v  2.8984 0.3112 -12.8018
v  2.8984 0.0000 -12.8018
v  2.8984 0.6225 -12.8018
v  2.8984 0.9337 -12.8018
v  2.8984 1.2450 -12.8018
v  2.8984 1.5562 -12.8018
v  3.5484 1.5562 -11.0159
v  3.5484 1.2450 -11.0159
v  3.5484 0.9337 -11.0159
v  3.5484 0.6225 -11.0159
v  3.5484 0.3112 -11.0159
v  3.5484 0.0000 -11.0159
# 216 vertices

vn 0.0000 -0.6701 -0.7423
vn 0.0000 0.0000 -1.0000
vn 0.3420 0.0000 -0.9397
vn 0.2539 -0.6701 -0.6975
vn 0.0000 0.6701 -0.7423
vn 0.2539 0.6701 -0.6975
vn -0.0000 0.7484 0.6633
vn -0.2269 0.7484 0.6233
vn -0.0000 0.0000 1.0000
vn -0.3420 0.0000 0.9397
vn -0.0000 -0.7484 0.6633
vn -0.2269 -0.7484 0.6233
vn 0.6428 0.0000 -0.7660
vn 0.4772 -0.6700 -0.5687
vn 0.4772 0.6700 -0.5687
vn -0.4264 0.7484 0.5081
vn -0.6428 0.0000 0.7660
vn -0.4264 -0.7484 0.5081
vn 0.8660 0.0000 -0.5000
vn 0.6429 -0.6700 -0.3712
vn 0.6429 0.6700 -0.3712
vn -0.5744 0.7484 0.3316
vn -0.8660 0.0000 0.5000
vn -0.5744 -0.7484 0.3316
vn 0.9848 0.0000 -0.1736
vn 0.7311 -0.6700 -0.1289
vn 0.7311 0.6700 -0.1289
vn -0.6532 0.7484 0.1152
vn -0.9848 0.0000 0.1736
vn -0.6532 -0.7484 0.1152
vn 0.9848 0.0000 0.1736
vn 0.7311 -0.6700 0.1289
vn 0.7311 0.6700 0.1289
vn -0.6532 0.7484 -0.1152
vn -0.9848 0.0000 -0.1736
vn -0.6532 -0.7484 -0.1152
vn 0.8660 0.0000 0.5000
vn 0.6429 -0.6700 0.3712
vn 0.6429 0.6700 0.3712
vn -0.5744 0.7484 -0.3316
vn -0.8660 0.0000 -0.5000
vn -0.5744 -0.7484 -0.3316
vn 0.6428 0.0000 0.7660
vn 0.4772 -0.6700 0.5687
vn 0.4772 0.6700 0.5687
vn -0.4264 0.7484 -0.5081
vn -0.6428 0.0000 -0.7660
vn -0.4264 -0.7484 -0.5081
vn 0.3420 0.0000 0.9397
vn 0.2539 -0.6700 0.6976
vn 0.2539 0.6700 0.6976
vn -0.2269 0.7484 -0.6233
vn -0.3420 0.0000 -0.9397
vn -0.2269 -0.7484 -0.6233
vn -0.0000 -0.6700 0.7423
vn -0.0000 0.6700 0.7423
vn 0.0000 0.7484 -0.6633
vn 0.0000 -0.7484 -0.6633
vn -0.2539 -0.6701 0.6975
vn -0.2539 0.6701 0.6975
vn 0.2269 0.7484 -0.6233
vn 0.2269 -0.7484 -0.6233
vn -0.4772 -0.6701 0.5686
vn -0.4772 0.6701 0.5686
vn 0.4264 0.7484 -0.5081
vn 0.4264 -0.7484 -0.5081
vn -0.6428 -0.6701 0.3712
vn -0.6428 0.6701 0.3712
vn 0.5744 0.7484 -0.3316
vn 0.5744 -0.7484 -0.3316
vn -0.7310 -0.6701 0.1289
vn -0.7310 0.6701 0.1289
vn 0.6532 0.7484 -0.1152
vn 0.6532 -0.7484 -0.1152
vn -0.7311 -0.6700 -0.1289
vn -0.7311 0.6700 -0.1289
vn 0.6532 0.7484 0.1152
vn 0.6532 -0.7484 0.1152
vn -0.6429 -0.6701 -0.3711
vn -0.6429 0.6701 -0.3711
vn 0.5744 0.7484 0.3316
vn 0.5744 -0.7484 0.3316
vn -0.6428 0.0000 -0.7661
vn -0.4771 -0.6701 -0.5686
vn -0.4771 0.6701 -0.5686
vn 0.4264 0.7484 0.5081
vn 0.4264 -0.7484 0.5081
vn -0.2539 -0.6701 -0.6975
vn -0.2539 0.6701 -0.6975
vn 0.2269 0.7484 0.6232
vn 0.2269 -0.7484 0.6232
# 91 vertex normals

vt 0.0000 0.0000 0.0000
vt 0.0833 0.0000 0.0000
vt 0.0833 0.0556 0.0000
vt 0.0000 0.0556 0.0000
vt 0.1667 0.0000 0.0000
vt 0.1667 0.0556 0.0000
vt 0.2500 0.0000 0.0000
vt 0.2500 0.0556 0.0000
vt 0.3333 0.0000 0.0000
vt 0.3333 0.0556 0.0000
vt 0.4167 0.0000 0.0000
vt 0.4167 0.0556 0.0000
vt 0.5000 0.0000 0.0000
vt 0.5000 0.0556 0.0000
vt 0.5833 0.0000 0.0000
vt 0.5833 0.0556 0.0000
vt 0.6667 0.0000 0.0000
vt 0.6667 0.0556 0.0000
vt 0.7500 0.0000 0.0000
vt 0.7500 0.0556 0.0000
vt 0.8333 0.0000 0.0000
vt 0.8333 0.0556 0.0000
vt 0.9167 0.0000 0.0000
vt 0.9167 0.0556 0.0000
vt 1.0000 0.0000 0.0000
vt 1.0000 0.0556 0.0000
vt 0.0833 0.1111 0.0000
vt 0.0000 0.1111 0.0000
vt 0.1667 0.1111 0.0000
vt 0.2500 0.1111 0.0000
vt 0.3333 0.1111 0.0000
vt 0.4167 0.1111 0.0000
vt 0.5000 0.1111 0.0000
vt 0.5833 0.1111 0.0000
vt 0.6667 0.1111 0.0000
vt 0.7500 0.1111 0.0000
vt 0.8333 0.1111 0.0000
vt 0.9167 0.1111 0.0000
vt 1.0000 0.1111 0.0000
vt 0.0833 0.1667 0.0000
vt 0.0000 0.1667 0.0000
vt 0.1667 0.1667 0.0000
vt 0.2500 0.1667 0.0000
vt 0.3333 0.1667 0.0000
vt 0.4167 0.1667 0.0000
vt 0.5000 0.1667 0.0000
vt 0.5833 0.1667 0.0000
vt 0.6667 0.1667 0.0000
vt 0.7500 0.1667 0.0000
vt 0.8333 0.1667 0.0000
vt 0.9167 0.1667 0.0000
vt 1.0000 0.1667 0.0000
vt 0.0833 0.2222 0.0000
vt 0.0000 0.2222 0.0000
vt 0.1667 0.2222 0.0000
vt 0.2500 0.2222 0.0000
vt 0.3333 0.2222 0.0000
vt 0.4167 0.2222 0.0000
vt 0.5000 0.2222 0.0000
vt 0.5833 0.2222 0.0000
vt 0.6667 0.2222 0.0000
vt 0.7500 0.2222 0.0000
vt 0.8333 0.2222 0.0000
vt 0.9167 0.2222 0.0000
vt 1.0000 0.2222 0.0000
vt 0.0833 0.2778 0.0000
vt 0.0000 0.2778 0.0000
vt 0.1667 0.2778 0.0000
vt 0.2500 0.2778 0.0000
vt 0.3333 0.2778 0.0000
vt 0.4167 0.2778 0.0000
vt 0.5000 0.2778 0.0000
vt 0.5833 0.2778 0.0000
vt 0.6667 0.2778 0.0000
vt 0.7500 0.2778 0.0000
vt 0.8333 0.2778 0.0000
vt 0.9167 0.2778 0.0000
vt 1.0000 0.2778 0.0000
vt 0.0833 0.3333 0.0000
vt 0.0000 0.3333 0.0000
vt 0.1667 0.3333 0.0000
vt 0.2500 0.3333 0.0000
vt 0.3333 0.3333 0.0000
vt 0.4167 0.3333 0.0000
vt 0.5000 0.3333 0.0000
vt 0.5833 0.3333 0.0000
vt 0.6667 0.3333 0.0000
vt 0.7500 0.3333 0.0000
vt 0.8333 0.3333 0.0000
vt 0.9167 0.3333 0.0000
vt 1.0000 0.3333 0.0000
vt 0.0833 0.3889 0.0000
vt 0.0000 0.3889 0.0000
vt 0.1667 0.3889 0.0000
vt 0.2500 0.3889 0.0000
vt 0.3333 0.3889 0.0000
vt 0.4167 0.3889 0.0000
vt 0.5000 0.3889 0.0000
vt 0.5833 0.3889 0.0000
vt 0.6667 0.3889 0.0000
vt 0.7500 0.3889 0.0000
vt 0.8333 0.3889 0.0000
vt 0.9167 0.3889 0.0000
vt 1.0000 0.3889 0.0000
vt 0.0833 0.4444 0.0000
vt 0.0000 0.4444 0.0000
vt 0.1667 0.4444 0.0000
vt 0.2500 0.4444 0.0000
vt 0.3333 0.4444 0.0000
vt 0.4167 0.4444 0.0000
vt 0.5000 0.4444 0.0000
vt 0.5833 0.4444 0.0000
vt 0.6667 0.4444 0.0000
vt 0.7500 0.4444 0.0000
vt 0.8333 0.4444 0.0000
vt 0.9167 0.4444 0.0000
vt 1.0000 0.4444 0.0000
vt 0.0833 0.5000 0.0000
vt 0.0000 0.5000 0.0000
vt 0.1667 0.5000 0.0000
vt 0.2500 0.5000 0.0000
vt 0.3333 0.5000 0.0000
vt 0.4167 0.5000 0.0000
vt 0.5000 0.5000 0.0000
vt 0.5833 0.5000 0.0000
vt 0.6667 0.5000 0.0000
vt 0.7500 0.5000 0.0000
vt 0.8333 0.5000 0.0000
vt 0.9167 0.5000 0.0000
vt 1.0000 0.5000 0.0000
vt 0.0833 0.5556 0.0000
vt 0.0000 0.5556 0.0000
vt 0.1667 0.5556 0.0000
vt 0.2500 0.5556 0.0000
vt 0.3333 0.5556 0.0000
vt 0.4167 0.5556 0.0000
vt 0.5000 0.5556 0.0000
vt 0.5833 0.5556 0.0000
vt 0.6667 0.5556 0.0000
vt 0.7500 0.5556 0.0000
vt 0.8333 0.5556 0.0000
vt 0.9167 0.5556 0.0000
vt 1.0000 0.5556 0.0000
vt 0.0833 0.6111 0.0000
vt 0.0000 0.6111 0.0000
vt 0.1667 0.6111 0.0000
vt 0.2500 0.6111 0.0000
vt 0.3333 0.6111 0.0000
vt 0.4167 0.6111 0.0000
vt 0.5000 0.6111 0.0000
vt 0.5833 0.6111 0.0000
vt 0.6667 0.6111 0.0000
vt 0.7500 0.6111 0.0000
vt 0.8333 0.6111 0.0000
vt 0.9167 0.6111 0.0000
vt 1.0000 0.6111 0.0000
vt 0.0833 0.6667 0.0000
vt 0.0000 0.6667 0.0000
vt 0.1667 0.6667 0.0000
vt 0.2500 0.6667 0.0000
vt 0.3333 0.6667 0.0000
vt 0.4167 0.6667 0.0000
vt 0.5000 0.6667 0.0000
vt 0.5833 0.6667 0.0000
vt 0.6667 0.6667 0.0000
vt 0.7500 0.6667 0.0000
vt 0.8333 0.6667 0.0000
vt 0.9167 0.6667 0.0000
vt 1.0000 0.6667 0.0000
vt 0.0833 0.7222 0.0000
vt 0.0000 0.7222 0.0000
vt 0.1667 0.7222 0.0000
vt 0.2500 0.7222 0.0000
vt 0.3333 0.7222 0.0000
vt 0.4167 0.7222 0.0000
vt 0.5000 0.7222 0.0000
vt 0.5833 0.7222 0.0000
vt 0.6667 0.7222 0.0000
vt 0.7500 0.7222 0.0000
vt 0.8333 0.7222 0.0000
vt 0.9167 0.7222 0.0000
vt 1.0000 0.7222 0.0000
vt 0.0833 0.7778 0.0000
vt 0.0000 0.7778 0.0000
vt 0.1667 0.7778 0.0000
vt 0.2500 0.7778 0.0000
vt 0.3333 0.7778 0.0000
vt 0.4167 0.7778 0.0000
vt 0.5000 0.7778 0.0000
vt 0.5833 0.7778 0.0000
vt 0.6667 0.7778 0.0000
vt 0.7500 0.7778 0.0000
vt 0.8333 0.7778 0.0000
vt 0.9167 0.7778 0.0000
vt 1.0000 0.7778 0.0000
vt 0.0833 0.8333 0.0000
vt 0.0000 0.8333 0.0000
vt 0.1667 0.8333 0.0000
vt 0.2500 0.8333 0.0000
vt 0.3333 0.8333 0.0000
vt 0.4167 0.8333 0.0000
vt 0.5000 0.8333 0.0000
vt 0.5833 0.8333 0.0000
vt 0.6667 0.8333 0.0000
vt 0.7500 0.8333 0.0000
vt 0.8333 0.8333 0.0000
vt 0.9167 0.8333 0.0000
vt 1.0000 0.8333 0.0000
vt 0.0833 0.8889 0.0000
vt 0.0000 0.8889 0.0000
vt 0.1667 0.8889 0.0000
vt 0.2500 0.8889 0.0000
vt 0.3333 0.8889 0.0000
vt 0.4167 0.8889 0.0000
vt 0.5000 0.8889 0.0000
vt 0.5833 0.8889 0.0000
vt 0.6667 0.8889 0.0000
vt 0.7500 0.8889 0.0000
vt 0.8333 0.8889 0.0000
vt 0.9167 0.8889 0.0000
vt 1.0000 0.8889 0.0000
vt 0.0833 0.9444 0.0000
vt 0.0000 0.9444 0.0000
vt 0.1667 0.9444 0.0000
vt 0.2500 0.9444 0.0000
vt 0.3333 0.9444 0.0000
vt 0.4167 0.9444 0.0000
vt 0.5000 0.9444 0.0000
vt 0.5833 0.9444 0.0000
vt 0.6667 0.9444 0.0000
vt 0.7500 0.9444 0.0000
vt 0.8333 0.9444 0.0000
vt 0.9167 0.9444 0.0000
vt 1.0000 0.9444 0.0000
vt 0.0833 1.0000 0.0000
vt 0.0000 1.0000 0.0000
vt 0.1667 1.0000 0.0000
vt 0.2500 1.0000 0.0000
vt 0.3333 1.0000 0.0000
vt 0.4167 1.0000 0.0000
vt 0.5000 1.0000 0.0000
vt 0.5833 1.0000 0.0000
vt 0.6667 1.0000 0.0000
vt 0.7500 1.0000 0.0000
vt 0.8333 1.0000 0.0000
vt 0.9167 1.0000 0.0000
vt 1.0000 1.0000 0.0000
# 247 texture coords

o Tube001
g Tube001
usemtl wire_084128021
s 2
f 1/1/1 2/2/2 3/3/3 4/4/4 
f 2/2/2 5/5/2 6/6/3 3/3/3 
f 5/5/2 7/7/2 8/8/3 6/6/3 
f 7/7/2 9/9/2 10/10/3 8/8/3 
f 9/9/2 11/11/5 12/12/6 10/10/3 
s 4
f 11/11/5 13/13/7 14/14/8 12/12/6 
s 2
f 13/13/7 15/15/9 16/16/10 14/14/8 
f 15/15/9 17/17/9 18/18/10 16/16/10 
f 17/17/9 19/19/9 20/20/10 18/18/10 
f 19/19/9 21/21/9 22/22/10 20/20/10 
f 21/21/9 23/23/11 24/24/12 22/22/10 
s 4
f 23/23/11 1/25/1 4/26/4 24/24/12 
s 2
f 4/4/4 3/3/3 25/27/13 26/28/14 
f 3/3/3 6/6/3 27/29/13 25/27/13 
f 6/6/3 8/8/3 28/30/13 27/29/13 
f 8/8/3 10/10/3 29/31/13 28/30/13 
f 10/10/3 12/12/6 30/32/15 29/31/13 
s 4
f 12/12/6 14/14/8 31/33/16 30/32/15 
s 2
f 14/14/8 16/16/10 32/34/17 31/33/16 
f 16/16/10 18/18/10 33/35/17 32/34/17 
f 18/18/10 20/20/10 34/36/17 33/35/17 
f 20/20/10 22/22/10 35/37/17 34/36/17 
f 22/22/10 24/24/12 36/38/18 35/37/17 
s 4
f 24/24/12 4/26/4 26/39/14 36/38/18 
s 2
f 26/28/14 25/27/13 37/40/19 38/41/20 
f 25/27/13 27/29/13 39/42/19 37/40/19 
f 27/29/13 28/30/13 40/43/19 39/42/19 
f 28/30/13 29/31/13 41/44/19 40/43/19 
f 29/31/13 30/32/15 42/45/21 41/44/19 
s 4
f 30/32/15 31/33/16 43/46/22 42/45/21 
s 2
f 31/33/16 32/34/17 44/47/23 43/46/22 
f 32/34/17 33/35/17 45/48/23 44/47/23 
f 33/35/17 34/36/17 46/49/23 45/48/23 
f 34/36/17 35/37/17 47/50/23 46/49/23 
f 35/37/17 36/38/18 48/51/24 47/50/23 
s 4
f 36/38/18 26/39/14 38/52/20 48/51/24 
s 2
f 38/41/20 37/40/19 49/53/25 50/54/26 
f 37/40/19 39/42/19 51/55/25 49/53/25 
f 39/42/19 40/43/19 52/56/25 51/55/25 
f 40/43/19 41/44/19 53/57/25 52/56/25 
f 41/44/19 42/45/21 54/58/27 53/57/25 
s 4
f 42/45/21 43/46/22 55/59/28 54/58/27 
s 2
f 43/46/22 44/47/23 56/60/29 55/59/28 
f 44/47/23 45/48/23 57/61/29 56/60/29 
f 45/48/23 46/49/23 58/62/29 57/61/29 
f 46/49/23 47/50/23 59/63/29 58/62/29 
f 47/50/23 48/51/24 60/64/30 59/63/29 
s 4
f 48/51/24 38/52/20 50/65/26 60/64/30 
s 2
f 50/54/26 49/53/25 61/66/31 62/67/32 
f 49/53/25 51/55/25 63/68/31 61/66/31 
f 51/55/25 52/56/25 64/69/31 63/68/31 
f 52/56/25 53/57/25 65/70/31 64/69/31 
f 53/57/25 54/58/27 66/71/33 65/70/31 
s 4
f 54/58/27 55/59/28 67/72/34 66/71/33 
s 2
f 55/59/28 56/60/29 68/73/35 67/72/34 
f 56/60/29 57/61/29 69/74/35 68/73/35 
f 57/61/29 58/62/29 70/75/35 69/74/35 
f 58/62/29 59/63/29 71/76/35 70/75/35 
f 59/63/29 60/64/30 72/77/36 71/76/35 
s 4
f 60/64/30 50/65/26 62/78/32 72/77/36 
s 2
f 62/67/32 61/66/31 73/79/37 74/80/38 
f 61/66/31 63/68/31 75/81/37 73/79/37 
f 63/68/31 64/69/31 76/82/37 75/81/37 
f 64/69/31 65/70/31 77/83/37 76/82/37 
f 65/70/31 66/71/33 78/84/39 77/83/37 
s 4
f 66/71/33 67/72/34 79/85/40 78/84/39 
s 2
f 67/72/34 68/73/35 80/86/41 79/85/40 
f 68/73/35 69/74/35 81/87/41 80/86/41 
f 69/74/35 70/75/35 82/88/41 81/87/41 
f 70/75/35 71/76/35 83/89/41 82/88/41 
f 71/76/35 72/77/36 84/90/42 83/89/41 
s 4
f 72/77/36 62/78/32 74/91/38 84/90/42 
s 2
f 74/80/38 73/79/37 85/92/43 86/93/44 
f 73/79/37 75/81/37 87/94/43 85/92/43 
f 75/81/37 76/82/37 88/95/43 87/94/43 
f 76/82/37 77/83/37 89/96/43 88/95/43 
f 77/83/37 78/84/39 90/97/45 89/96/43 
s 4
f 78/84/39 79/85/40 91/98/46 90/97/45 
s 2
f 79/85/40 80/86/41 92/99/47 91/98/46 
f 80/86/41 81/87/41 93/100/47 92/99/47 
f 81/87/41 82/88/41 94/101/47 93/100/47 
f 82/88/41 83/89/41 95/102/47 94/101/47 
f 83/89/41 84/90/42 96/103/48 95/102/47 
s 4
f 84/90/42 74/91/38 86/104/44 96/103/48 
s 2
f 86/93/44 85/92/43 97/105/49 98/106/50 
f 85/92/43 87/94/43 99/107/49 97/105/49 
f 87/94/43 88/95/43 100/108/49 99/107/49 
f 88/95/43 89/96/43 101/109/49 100/108/49 
f 89/96/43 90/97/45 102/110/51 101/109/49 
s 4
f 90/97/45 91/98/46 103/111/52 102/110/51 
s 2
f 91/98/46 92/99/47 104/112/53 103/111/52 
f 92/99/47 93/100/47 105/113/53 104/112/53 
f 93/100/47 94/101/47 106/114/53 105/113/53 
f 94/101/47 95/102/47 107/115/53 106/114/53 
f 95/102/47 96/103/48 108/116/54 107/115/53 
s 4
f 96/103/48 86/104/44 98/117/50 108/116/54 
s 2
f 98/106/50 97/105/49 109/118/9 110/119/55 
f 97/105/49 99/107/49 111/120/9 109/118/9 
f 99/107/49 100/108/49 112/121/9 111/120/9 
f 100/108/49 101/109/49 113/122/9 112/121/9 
f 101/109/49 102/110/51 114/123/56 113/122/9 
s 4
f 102/110/51 103/111/52 115/124/57 114/123/56 
s 2
f 103/111/52 104/112/53 116/125/2 115/124/57 
f 104/112/53 105/113/53 117/126/2 116/125/2 
f 105/113/53 106/114/53 118/127/2 117/126/2 
f 106/114/53 107/115/53 119/128/2 118/127/2 
f 107/115/53 108/116/54 120/129/58 119/128/2 
s 4
f 108/116/54 98/117/50 110/130/55 120/129/58 
s 2
f 110/119/55 109/118/9 121/131/10 122/132/59 
f 109/118/9 111/120/9 123/133/10 121/131/10 
f 111/120/9 112/121/9 124/134/10 123/133/10 
f 112/121/9 113/122/9 125/135/10 124/134/10 
f 113/122/9 114/123/56 126/136/60 125/135/10 
s 4
f 114/123/56 115/124/57 127/137/61 126/136/60 
s 2
f 115/124/57 116/125/2 128/138/3 127/137/61 
f 116/125/2 117/126/2 129/139/3 128/138/3 
f 117/126/2 118/127/2 130/140/3 129/139/3 
f 118/127/2 119/128/2 131/141/3 130/140/3 
f 119/128/2 120/129/58 132/142/62 131/141/3 
s 4
f 120/129/58 110/130/55 122/143/59 132/142/62 
s 2
f 122/132/59 121/131/10 133/144/17 134/145/63 
f 121/131/10 123/133/10 135/146/17 133/144/17 
f 123/133/10 124/134/10 136/147/17 135/146/17 
f 124/134/10 125/135/10 137/148/17 136/147/17 
f 125/135/10 126/136/60 138/149/64 137/148/17 
s 4
f 126/136/60 127/137/61 139/150/65 138/149/64 
s 2
f 127/137/61 128/138/3 140/151/13 139/150/65 
f 128/138/3 129/139/3 141/152/13 140/151/13 
f 129/139/3 130/140/3 142/153/13 141/152/13 
f 130/140/3 131/141/3 143/154/13 142/153/13 
f 131/141/3 132/142/62 144/155/66 143/154/13 
s 4
f 132/142/62 122/143/59 134/156/63 144/155/66 
s 2
f 134/145/63 133/144/17 145/157/23 146/158/67 
f 133/144/17 135/146/17 147/159/23 145/157/23 
f 135/146/17 136/147/17 148/160/23 147/159/23 
f 136/147/17 137/148/17 149/161/23 148/160/23 
f 137/148/17 138/149/64 150/162/68 149/161/23 
s 4
f 138/149/64 139/150/65 151/163/69 150/162/68 
s 2
f 139/150/65 140/151/13 152/164/19 151/163/69 
f 140/151/13 141/152/13 153/165/19 152/164/19 
f 141/152/13 142/153/13 154/166/19 153/165/19 
f 142/153/13 143/154/13 155/167/19 154/166/19 
f 143/154/13 144/155/66 156/168/70 155/167/19 
s 4
f 144/155/66 134/156/63 146/169/67 156/168/70 
s 2
f 146/158/67 145/157/23 157/170/29 158/171/71 
f 145/157/23 147/159/23 159/172/29 157/170/29 
f 147/159/23 148/160/23 160/173/29 159/172/29 
f 148/160/23 149/161/23 161/174/29 160/173/29 
f 149/161/23 150/162/68 162/175/72 161/174/29 
s 4
f 150/162/68 151/163/69 163/176/73 162/175/72 
s 2
f 151/163/69 152/164/19 164/177/25 163/176/73 
f 152/164/19 153/165/19 165/178/25 164/177/25 
f 153/165/19 154/166/19 166/179/25 165/178/25 
f 154/166/19 155/167/19 167/180/25 166/179/25 
f 155/167/19 156/168/70 168/181/74 167/180/25 
s 4
f 156/168/70 146/169/67 158/182/71 168/181/74 
s 2
f 158/171/71 157/170/29 169/183/35 170/184/75 
f 157/170/29 159/172/29 171/185/35 169/183/35 
f 159/172/29 160/173/29 172/186/35 171/185/35 
f 160/173/29 161/174/29 173/187/35 172/186/35 
f 161/174/29 162/175/72 174/188/76 173/187/35 
s 4
f 162/175/72 163/176/73 175/189/77 174/188/76 
s 2
f 163/176/73 164/177/25 176/190/31 175/189/77 
f 164/177/25 165/178/25 177/191/31 176/190/31 
f 165/178/25 166/179/25 178/192/31 177/191/31 
f 166/179/25 167/180/25 179/193/31 178/192/31 
f 167/180/25 168/181/74 180/194/78 179/193/31 
s 4
f 168/181/74 158/182/71 170/195/75 180/194/78 
s 2
f 170/184/75 169/183/35 181/196/41 182/197/79 
f 169/183/35 171/185/35 183/198/41 181/196/41 
f 171/185/35 172/186/35 184/199/41 183/198/41 
f 172/186/35 173/187/35 185/200/41 184/199/41 
f 173/187/35 174/188/76 186/201/80 185/200/41 
s 4
f 174/188/76 175/189/77 187/202/81 186/201/80 
s 2
f 175/189/77 176/190/31 188/203/37 187/202/81 
f 176/190/31 177/191/31 189/204/37 188/203/37 
f 177/191/31 178/192/31 190/205/37 189/204/37 
f 178/192/31 179/193/31 191/206/37 190/205/37 
f 179/193/31 180/194/78 192/207/82 191/206/37 
s 4
f 180/194/78 170/195/75 182/208/79 192/207/82 
s 2
f 182/197/79 181/196/41 193/209/83 194/210/84 
f 181/196/41 183/198/41 195/211/83 193/209/83 
f 183/198/41 184/199/41 196/212/83 195/211/83 
f 184/199/41 185/200/41 197/213/83 196/212/83 
f 185/200/41 186/201/80 198/214/85 197/213/83 
s 4
f 186/201/80 187/202/81 199/215/86 198/214/85 
s 2
f 187/202/81 188/203/37 200/216/43 199/215/86 
f 188/203/37 189/204/37 201/217/43 200/216/43 
f 189/204/37 190/205/37 202/218/43 201/217/43 
f 190/205/37 191/206/37 203/219/43 202/218/43 
f 191/206/37 192/207/82 204/220/87 203/219/43 
s 4
f 192/207/82 182/208/79 194/221/84 204/220/87 
s 2
f 194/210/84 193/209/83 205/222/53 206/223/88 
f 193/209/83 195/211/83 207/224/53 205/222/53 
f 195/211/83 196/212/83 208/225/53 207/224/53 
f 196/212/83 197/213/83 209/226/53 208/225/53 
f 197/213/83 198/214/85 210/227/89 209/226/53 
s 4
f 198/214/85 199/215/86 211/228/90 210/227/89 
s 2
f 199/215/86 200/216/43 212/229/49 211/228/90 
f 200/216/43 201/217/43 213/230/49 212/229/49 
f 201/217/43 202/218/43 214/231/49 213/230/49 
f 202/218/43 203/219/43 215/232/49 214/231/49 
f 203/219/43 204/220/87 216/233/91 215/232/49 
s 4
f 204/220/87 194/221/84 206/234/88 216/233/91 
s 2
f 206/223/88 205/222/53 2/235/2 1/236/1 
f 205/222/53 207/224/53 5/237/2 2/235/2 
f 207/224/53 208/225/53 7/238/2 5/237/2 
f 208/225/53 209/226/53 9/239/2 7/238/2 
f 209/226/53 210/227/89 11/240/5 9/239/2 
s 4
f 210/227/89 211/228/90 13/241/7 11/240/5 
s 2
f 211/228/90 212/229/49 15/242/9 13/241/7 
f 212/229/49 213/230/49 17/243/9 15/242/9 
f 213/230/49 214/231/49 19/244/9 17/243/9 
f 214/231/49 215/232/49 21/245/9 19/244/9 
f 215/232/49 216/233/91 23/246/11 21/245/9 
s 4
f 216/233/91 206/234/88 1/247/1 23/246/11 
# 216 polygons

